<?xml version="1.0" encoding="UTF-8" standalone="no"?>
<svg
   xmlns:dc="http://purl.org/dc/elements/1.1/"
   xmlns:cc="http://creativecommons.org/ns#"
   xmlns:rdf="http://www.w3.org/1999/02/22-rdf-syntax-ns#"
   xmlns:svg="http://www.w3.org/2000/svg"
   xmlns="http://www.w3.org/2000/svg"
   xmlns:sodipodi="http://sodipodi.sourceforge.net/DTD/sodipodi-0.dtd"
   xmlns:inkscape="http://www.inkscape.org/namespaces/inkscape"
   style="enable-background:new 0 0 50 50;"
   version="1.1"
   viewBox="0 0 50 50"
   xml:space="preserve"
   id="svg9"
   sodipodi:docname="checkbox.svg"
   inkscape:version="0.92.4 (5da689c313, 2019-01-14)"><metadata
     id="metadata15"><rdf:RDF><cc:Work
         rdf:about=""><dc:format>image/svg+xml</dc:format><dc:type
           rdf:resource="http://purl.org/dc/dcmitype/StillImage" /><dc:title></dc:title></cc:Work></rdf:RDF></metadata><defs
     id="defs13" /><sodipodi:namedview
     pagecolor="#ffffff"
     bordercolor="#666666"
     borderopacity="1"
     objecttolerance="10"
     gridtolerance="10"
     guidetolerance="10"
     inkscape:pageopacity="0"
     inkscape:pageshadow="2"
     inkscape:window-width="1920"
     inkscape:window-height="1010"
     id="namedview11"
     showgrid="false"
     inkscape:zoom="9.44"
     inkscape:cx="14.269626"
     inkscape:cy="33.654746"
     inkscape:window-x="0"
     inkscape:window-y="34"
     inkscape:window-maximized="1"
     inkscape:current-layer="svg9" /><g
     id="Layer_1"><path
       d="M44,1H6C3.243,1,1,3.243,1,6v38c0,2.757,2.243,5,5,5h38c2.757,0,5-2.243,5-5V6C49,3.243,46.757,1,44,1z M47,44   c0,1.654-1.346,3-3,3H6c-1.654,0-3-1.346-3-3V6c0-1.654,1.346-3,3-3h38c1.654,0,3,1.346,3,3V44z"
       id="path2" /><polygon
       points="16,35.586 9.707,29.293 8.293,30.707 16,38.414 41.707,12.707 40.293,11.293  "
       id="polygon4" /></g><g
     id="g7" /></svg>