<?xml version="1.0" encoding="UTF-8" standalone="no"?>
<svg
   xmlns:dc="http://purl.org/dc/elements/1.1/"
   xmlns:cc="http://creativecommons.org/ns#"
   xmlns:rdf="http://www.w3.org/1999/02/22-rdf-syntax-ns#"
   xmlns:svg="http://www.w3.org/2000/svg"
   xmlns="http://www.w3.org/2000/svg"
   xmlns:sodipodi="http://sodipodi.sourceforge.net/DTD/sodipodi-0.dtd"
   xmlns:inkscape="http://www.inkscape.org/namespaces/inkscape"
   style="enable-background:new 0 0 50 50;"
   version="1.1"
   viewBox="0 0 50 50"
   xml:space="preserve"
   id="svg4820"
   sodipodi:docname="editActivate.svg"
   inkscape:version="0.92.4 (5da689c313, 2019-01-14)"><metadata
     id="metadata4826"><rdf:RDF><cc:Work
         rdf:about=""><dc:format>image/svg+xml</dc:format><dc:type
           rdf:resource="http://purl.org/dc/dcmitype/StillImage" /><dc:title></dc:title></cc:Work></rdf:RDF></metadata><defs
     id="defs4824" /><sodipodi:namedview
     pagecolor="#ffffff"
     bordercolor="#666666"
     borderopacity="1"
     objecttolerance="10"
     gridtolerance="10"
     guidetolerance="10"
     inkscape:pageopacity="0"
     inkscape:pageshadow="2"
     inkscape:window-width="789"
     inkscape:window-height="480"
     id="namedview4822"
     showgrid="false"
     inkscape:zoom="4.72"
     inkscape:cx="25"
     inkscape:cy="25"
     inkscape:window-x="521"
     inkscape:window-y="166"
     inkscape:window-maximized="0"
     inkscape:current-layer="svg4820" /><g
     id="Layer_1"
     style="fill:#006dff;fill-opacity:1"><path
       d="M44,19.09V1h-2v18.09c-2.833,0.478-5,2.942-5,5.91s2.167,5.431,5,5.91V49h2V30.91c2.833-0.478,5-2.942,5-5.91   S46.833,19.569,44,19.09z M43,29c-2.206,0-4-1.794-4-4s1.794-4,4-4s4,1.794,4,4S45.206,29,43,29z"
       id="path4811"
       style="fill:#006dff;fill-opacity:1" /><path
       d="M6,1v7.09C3.167,8.569,1,11.033,1,14s2.167,5.431,5,5.91V49h2V19.91c2.833-0.478,5-2.942,5-5.91s-2.167-5.431-5-5.91V1H6z    M11,14c0,2.206-1.794,4-4,4s-4-1.794-4-4s1.794-4,4-4S11,11.794,11,14z"
       id="path4813"
       style="fill:#006dff;fill-opacity:1" /><path
       d="M24,1v30.09c-2.833,0.478-5,2.942-5,5.91s2.167,5.431,5,5.91V49h2v-6.09c2.833-0.478,5-2.942,5-5.91s-2.167-5.431-5-5.91V1   H24z M29,37c0,2.206-1.794,4-4,4s-4-1.794-4-4s1.794-4,4-4S29,34.794,29,37z"
       id="path4815"
       style="fill:#006dff;fill-opacity:1" /></g><g
     id="g4818" /></svg>