<?xml version="1.0" encoding="UTF-8" standalone="no"?>
<svg
   xmlns:dc="http://purl.org/dc/elements/1.1/"
   xmlns:cc="http://creativecommons.org/ns#"
   xmlns:rdf="http://www.w3.org/1999/02/22-rdf-syntax-ns#"
   xmlns:svg="http://www.w3.org/2000/svg"
   xmlns="http://www.w3.org/2000/svg"
   xmlns:sodipodi="http://sodipodi.sourceforge.net/DTD/sodipodi-0.dtd"
   xmlns:inkscape="http://www.inkscape.org/namespaces/inkscape"
   height="1792"
   viewBox="0 0 1792 1792"
   width="1792"
   version="1.1"
   id="svg4"
   sodipodi:docname="orderActivate.svg"
   inkscape:version="0.92.4 (5da689c313, 2019-01-14)">
  <metadata
     id="metadata10">
    <rdf:RDF>
      <cc:Work
         rdf:about="">
        <dc:format>image/svg+xml</dc:format>
        <dc:type
           rdf:resource="http://purl.org/dc/dcmitype/StillImage" />
        <dc:title></dc:title>
      </cc:Work>
    </rdf:RDF>
  </metadata>
  <defs
     id="defs8" />
  <sodipodi:namedview
     pagecolor="#ffffff"
     bordercolor="#666666"
     borderopacity="1"
     objecttolerance="10"
     gridtolerance="10"
     guidetolerance="10"
     inkscape:pageopacity="0"
     inkscape:pageshadow="2"
     inkscape:window-width="1920"
     inkscape:window-height="1027"
     id="namedview6"
     showgrid="false"
     inkscape:zoom="0.37249375"
     inkscape:cx="696.80919"
     inkscape:cy="931.52805"
     inkscape:window-x="1912"
     inkscape:window-y="-8"
     inkscape:window-maximized="1"
     inkscape:current-layer="svg4" />
  <path
     d="M1474 1313q0-63-44-116t-103-53q-52 0-83 37t-31 94 36.5 95 104.5 38q50 0 85-27t35-68zm-610 127q0 12-10 24l-319 319q-10 9-23 9-12 0-23-9l-320-320q-15-16-7-35 8-20 30-20h192v-1376q0-14 9-23t23-9h192q14 0 23 9t9 23v1376h192q14 0 23 9t9 23zm750-69q0 62-13 121.5t-41 114-68 95.5-98.5 65.5-127.5 24.5q-62 0-108-16-24-8-42-15l39-113q15 7 31 11 37 13 75 13 84 0 134.5-58.5t66.5-145.5h-2q-21 23-61.5 37t-84.5 14q-106 0-173-71.5t-67-172.5q0-105 72-178t181-73q123 0 205 94.5t82 252.5zm-30-717v114h-469v-114h167v-432q0-7 .5-19t.5-17v-16h-2l-7 12q-8 13-26 31l-62 58-82-86 192-185h123v654h165z"
     id="path2"
     style="fill:#006dff;fill-opacity:1" />
</svg>
